<svg xmlns="http://www.w3.org/2000/svg" version="1.1" viewBox="-5.0 -10.0 110.0 135.0">
 <path d="m19.129 24.832c-0.73438 0-1.332-0.59766-1.332-1.332v-9.4688c0-0.73438 0.59766-1.332 1.332-1.332s1.332 0.59766 1.332 1.332v9.4688c0 0.73438-0.59766 1.332-1.332 1.332zm-5.3477 0c-0.73438 0-1.332-0.59766-1.332-1.332v-9.4688c0-0.73438 0.59766-1.332 1.332-1.332s1.332 0.59766 1.332 1.332v9.4688c0 0.73438-0.59766 1.332-1.332 1.332z" fill-rule="evenodd"/>
 <path d="m19.133 20.098h-5.3477c-0.73438 0-1.332-0.59766-1.332-1.332s0.59766-1.332 1.332-1.332h5.3477c0.73438 0 1.332 0.59766 1.332 1.332s-0.59375 1.332-1.332 1.332z" fill-rule="evenodd"/>
 <path d="m27.176 24.832c-0.73438 0-1.332-0.59766-1.332-1.332v-8.1367h-2.4258c-0.73438 0-1.332-0.59766-1.332-1.332s0.59766-1.332 1.332-1.332h3.7266 0.066407 3.7266c0.73438 0 1.332 0.59766 1.332 1.332s-0.59766 1.332-1.332 1.332h-2.4258v8.1367c0 0.73438-0.59766 1.332-1.332 1.332z" fill-rule="evenodd"/>
 <path d="m41.973 24.832c-0.73438 0-1.332-0.59766-1.332-1.332v-5.3086l-0.96094 1.3477c-0.5 0.69922-1.668 0.69922-2.168 0l-0.96094-1.3477v5.3086c0 0.73438-0.59766 1.332-1.332 1.332s-1.332-0.59766-1.332-1.332v-9.4688c0-0.57812 0.375-1.0898 0.92578-1.2656s1.1523 0.023437 1.4883 0.49609l2.293 3.2148 2.293-3.2148c0.33594-0.46875 0.9375-0.66797 1.4883-0.49609 0.55078 0.17578 0.92578 0.6875 0.92578 1.2656v9.4688c0 0.73438-0.59766 1.332-1.332 1.332z" fill-rule="evenodd"/>
 <path d="m51.605 24.832h-5.3477c-0.73437 0-1.332-0.59766-1.332-1.332v-9.4688c0-0.73438 0.59766-1.332 1.332-1.332 0.73438 0 1.332 0.59766 1.332 1.332v8.1367h4.0156c0.73438 0 1.332 0.59766 1.332 1.332s-0.59766 1.332-1.332 1.332z" fill-rule="evenodd"/>
 <path d="m84.453 92.762h-61.684c-4.7227 0-8.5664-3.8438-8.5664-8.5664v-54.375c0-0.73437 0.59766-1.332 1.332-1.332h39.605c0.33984 0 0.625-0.28516 0.625-0.625v-18.199c0-0.33984-0.28516-0.625-0.625-0.625h-39.555c-0.37891 0-0.74219-0.16406-0.99609-0.44922s-0.37109-0.66406-0.32812-1.0391c0.51172-4.3086 4.1719-7.5547 8.5078-7.5547h44.523c0.73047 0 1.3281 0.59375 1.332 1.3242 0 0.10938-0.011719 0.21484-0.035156 0.31641v20.949c0 3.2539 2.6484 5.9023 5.9023 5.9023h17.199c0.73438 0 1.332 0.59766 1.332 1.332v54.375c0 4.7227-3.8438 8.5664-8.5664 8.5664zm-67.59-61.613v53.047c0 3.2578 2.6484 5.9062 5.9062 5.9062h61.684c3.2578 0 5.9062-2.6484 5.9062-5.9062v-53.047h-15.871c-4.7227 0-8.5625-3.8398-8.5625-8.5625v-19.922h-43.156c-2.4648 0-4.6094 1.5234-5.4844 3.7188h37.855c1.8125 0 3.2852 1.4727 3.2852 3.2852v18.199c0 1.8125-1.4727 3.2852-3.2852 3.2852h-38.277z" fill-rule="evenodd"/>
 <path d="m77.215 100h-61.684c-4.7227 0-8.5664-3.8438-8.5664-8.5664v-63.566c0-0.73438 0.59766-1.332 1.332-1.332s1.332 0.59766 1.332 1.332c0 0.33984 0.28516 0.625 0.625 0.625h5.2812c0.73438 0 1.332 0.59766 1.332 1.332v54.375c0 3.2578 2.6484 5.9062 5.9062 5.9062h61.684c0.73438 0 1.332 0.59766 1.332 1.332 0 4.7227-3.8438 8.5703-8.5664 8.5703zm-67.59-68.91v60.344c0 3.2578 2.6484 5.9062 5.9062 5.9062h61.684c2.8008 0 5.1484-1.957 5.7539-4.5742h-60.203c-4.7227 0-8.5664-3.8438-8.5664-8.5664v-53.043h-3.9531c-0.21484 0-0.42188-0.019531-0.625-0.058594z" fill-rule="evenodd"/>
 <path d="m55.141 31.152h-44.891c-1.8125 0-3.2852-1.4727-3.2852-3.2852v-18.199c0-1.8125 1.4727-3.2852 3.2852-3.2852h44.891c1.8125 0 3.2852 1.4727 3.2852 3.2852v18.199c0 1.8125-1.4727 3.2852-3.2852 3.2852zm-44.891-22.105c-0.33984 0-0.625 0.28516-0.625 0.625v18.199c0 0.33594 0.28516 0.625 0.625 0.625h44.891c0.33984 0 0.625-0.28516 0.625-0.625v-18.199c0-0.33984-0.28516-0.625-0.625-0.625z" fill-rule="evenodd"/>
 <path d="m91.707 31.148h-0.015625-17.199c-4.7227 0-8.5625-3.8398-8.5625-8.5625v-21.254c0-0.55859 0.34766-1.0547 0.86719-1.25 0.51953-0.19531 1.1094-0.042969 1.4727 0.38281l24.324 28.359c0.27344 0.24219 0.44531 0.59766 0.44531 0.99609 0 0.73438-0.59375 1.332-1.332 1.332zm-23.117-26.223v17.66c0 3.2539 2.6484 5.9023 5.9023 5.9023h14.305z" fill-rule="evenodd"/>
 <path d="m79.844 86.77h-52.465c-2.9883 0-5.418-2.4297-5.418-5.418v-39.609c0-2.9883 2.4297-5.418 5.418-5.418h52.465c2.9883 0 5.418 2.4297 5.418 5.418v39.609c0 2.9883-2.4297 5.418-5.418 5.418zm-52.465-47.781c-1.5195 0-2.7578 1.2383-2.7578 2.7578v39.609c0 1.5195 1.2383 2.7539 2.7578 2.7539h52.465c1.5195 0 2.7539-1.2383 2.7539-2.7539v-39.609c0-1.5195-1.2383-2.7539-2.7578-2.7539h-52.465z" fill-rule="evenodd"/>
 <path d="m72.051 79.672h-36.879c-2.3164 0-4.2031-1.8867-4.2031-4.2031v-27.844c0-2.3164 1.8867-4.2031 4.2031-4.2031h36.879c2.3164 0 4.2031 1.8867 4.2031 4.2031v27.844c0 2.3164-1.8867 4.2031-4.2031 4.2031zm-36.879-33.586c-0.85156 0-1.543 0.69141-1.543 1.543v27.844c0 0.85156 0.69141 1.543 1.543 1.543h36.879c0.85156 0 1.543-0.69141 1.543-1.543v-27.844c0-0.85156-0.69141-1.543-1.543-1.543z" fill-rule="evenodd"/>
 <path d="m74.922 56.062h-42.625c-0.73438 0-1.332-0.59766-1.332-1.332s0.59766-1.332 1.332-1.332h42.625c0.73438 0 1.332 0.59766 1.332 1.332s-0.59375 1.332-1.332 1.332z" fill-rule="evenodd"/>
 <path d="m40.684 51.074h-3.207c-0.73437 0-1.332-0.59766-1.332-1.332 0-0.73438 0.59766-1.332 1.332-1.332h3.207c0.73438 0 1.332 0.59766 1.332 1.332 0 0.73437-0.59766 1.332-1.332 1.332z" fill-rule="evenodd"/>
 <path d="m48.648 51.074h-3.207c-0.73438 0-1.332-0.59766-1.332-1.332 0-0.73438 0.59766-1.332 1.332-1.332h3.207c0.73437 0 1.332 0.59766 1.332 1.332 0 0.73437-0.59766 1.332-1.332 1.332z" fill-rule="evenodd"/>
 <path d="m69.746 51.074h-13.207c-0.73437 0-1.332-0.59766-1.332-1.332 0-0.73438 0.59766-1.332 1.332-1.332h13.207c0.73438 0 1.332 0.59766 1.332 1.332 0 0.73437-0.59766 1.332-1.332 1.332z" fill-rule="evenodd"/>
 <path d="m46.926 73.48c-0.33984 0-0.67969-0.12891-0.94141-0.39062l-5.6133-5.6133c-0.25-0.25-0.39062-0.58594-0.39062-0.94141 0-0.35156 0.14062-0.69141 0.39062-0.94141l5.6133-5.6133c0.51953-0.51953 1.3633-0.51953 1.8828 0 0.51953 0.51953 0.51953 1.3633 0 1.8828l-4.6719 4.6758 4.6719 4.6719c0.51953 0.51953 0.51953 1.3633 0 1.8828-0.26172 0.26172-0.60156 0.39062-0.94141 0.39062z" fill-rule="evenodd"/>
 <path d="m60.297 73.48c-0.33984 0-0.67969-0.12891-0.94141-0.39062-0.51953-0.51953-0.51953-1.3633 0-1.8828l4.6719-4.6719-4.6719-4.6758c-0.51953-0.51953-0.51953-1.3633 0-1.8828 0.51953-0.51953 1.3633-0.51953 1.8828 0l5.6133 5.6133c0.51953 0.51953 0.51953 1.3633 0 1.8828l-5.6133 5.6133c-0.25781 0.25781-0.60156 0.39062-0.94141 0.39062z" fill-rule="evenodd"/>
 <path d="m52.109 73.484c-0.11328 0-0.23047-0.015625-0.34766-0.046875-0.71094-0.19141-1.1328-0.92188-0.94141-1.6289l3.0078-11.23c0.19141-0.71094 0.91797-1.1328 1.6289-0.94141 0.71094 0.19141 1.1328 0.92188 0.94141 1.6289l-3.0078 11.23c-0.16016 0.59375-0.69531 0.98828-1.2852 0.98828z" fill-rule="evenodd"/>
<text x="0.0" y="117.5" font-size="5.0" font-weight="bold" font-family="Arbeit Regular, Helvetica, Arial-Unicode, Arial, Sans-serif" fill="#000000">Created by Muhammad Shabraiz</text><text x="0.0" y="122.5" font-size="5.0" font-weight="bold" font-family="Arbeit Regular, Helvetica, Arial-Unicode, Arial, Sans-serif" fill="#000000">from Noun Project</text></svg>