<svg xmlns="http://www.w3.org/2000/svg" version="1.1" viewBox="-5.0 -10.0 110.0 135.0">
 <path d="m23.699 25.277h-2.9062c-2.3359 0-4.2344-1.8984-4.2344-4.2344v-4.5508c0-2.3359 1.8984-4.2344 4.2344-4.2344h2.9062c0.73438 0 1.332 0.59766 1.332 1.332s-0.59766 1.332-1.332 1.332h-2.9062c-0.86719 0-1.5742 0.70703-1.5742 1.5742v4.5508c0 0.86719 0.70703 1.5742 1.5742 1.5742h2.9062c0.73438 0 1.332 0.59766 1.332 1.332s-0.59766 1.332-1.332 1.332z" fill-rule="evenodd"/>
 <path d="m34.238 25.277h-3.1211c-1.4844 0-2.6914-1.207-2.6914-2.6914v-0.32813c0-0.73437 0.59766-1.332 1.332-1.332 0.73438 0 1.332 0.59766 1.332 1.332v0.32813l3.1484 0.03125 0.03125-2.1055c0-0.21484-0.035156-0.28906-0.039062-0.28906-0.18359-0.12891-1.082-0.12109-1.5586-0.12891-0.84375 0-1.7148 0-2.4961-0.3125-1.1289-0.44922-1.75-1.4297-1.75-2.7578v-2.0703c0-1.4844 1.207-2.6914 2.6914-2.6914h3.1211c1.4844 0 2.6914 1.207 2.6914 2.6914v0.32812c0 0.73438-0.59766 1.332-1.332 1.332s-1.332-0.59766-1.332-1.332v-0.32812l-3.1523-0.03125-0.03125 2.1016c0 0.21094 0.035157 0.28125 0.035157 0.28125 0.17969 0.125 1.0703 0.125 1.5469 0.125 0.83984 0.003906 1.7188 0 2.5039 0.3125 0.65625 0.26172 1.7539 0.96875 1.7539 2.7695v2.0742c0 1.4844-1.2109 2.6914-2.6914 2.6914z" fill-rule="evenodd"/>
 <path d="m46.141 25.277h-3.1211c-1.4844 0-2.6914-1.207-2.6914-2.6914v-0.32813c0-0.73437 0.59766-1.332 1.332-1.332s1.332 0.59766 1.332 1.332v0.32813l3.1523 0.03125 0.03125-2.1055c0-0.21484-0.035156-0.28906-0.039062-0.28906-0.17969-0.12891-1.0781-0.12109-1.5586-0.12891-0.83594 0-1.7148 0-2.4961-0.3125-1.1289-0.44922-1.75-1.4297-1.75-2.7578v-2.0703c0-1.4844 1.207-2.6914 2.6914-2.6914h3.1211c1.4844 0 2.6914 1.207 2.6914 2.6914v0.32812c0 0.73438-0.59766 1.332-1.332 1.332s-1.332-0.59766-1.332-1.332v-0.32812l-3.1523-0.03125-0.03125 2.1016c0 0.21094 0.035157 0.28125 0.035157 0.28125 0.17969 0.125 1.0664 0.125 1.5469 0.125 0.83203 0.003906 1.7188 0 2.5039 0.3125 1.1328 0.44922 1.7539 1.4336 1.7539 2.7695v2.0742c0 1.4844-1.207 2.6914-2.6914 2.6914z" fill-rule="evenodd"/>
 <path d="m84.453 92.762h-61.684c-4.7227 0-8.5664-3.8438-8.5664-8.5664v-54.375c0-0.73437 0.59766-1.332 1.332-1.332h39.605c0.33984 0 0.625-0.28516 0.625-0.625v-18.199c0-0.33984-0.28516-0.625-0.625-0.625h-39.555c-0.37891 0-0.74219-0.16406-0.99609-0.44922s-0.37109-0.66406-0.32812-1.0391c0.51172-4.3086 4.1719-7.5547 8.5078-7.5547h44.523c0.73047 0 1.3281 0.59375 1.332 1.3242 0 0.10938-0.011719 0.21484-0.035156 0.31641v20.949c0 3.2539 2.6484 5.9023 5.9023 5.9023h17.199c0.73438 0 1.332 0.59766 1.332 1.332v54.375c0 4.7227-3.8438 8.5664-8.5664 8.5664zm-67.59-61.613v53.047c0 3.2578 2.6484 5.9062 5.9062 5.9062h61.684c3.2578 0 5.9062-2.6484 5.9062-5.9062v-53.047h-15.871c-4.7227 0-8.5625-3.8398-8.5625-8.5625v-19.922h-43.156c-2.4648 0-4.6094 1.5234-5.4844 3.7188h37.855c1.8125 0 3.2852 1.4727 3.2852 3.2852v18.199c0 1.8125-1.4727 3.2852-3.2852 3.2852h-38.277z" fill-rule="evenodd"/>
 <path d="m77.215 100h-61.684c-4.7227 0-8.5664-3.8438-8.5664-8.5664v-63.566c0-0.73438 0.59766-1.332 1.332-1.332s1.332 0.59766 1.332 1.332c0 0.33984 0.28516 0.625 0.625 0.625h5.2812c0.73438 0 1.332 0.59766 1.332 1.332v54.375c0 3.2578 2.6484 5.9062 5.9062 5.9062h61.684c0.73438 0 1.332 0.59766 1.332 1.332 0 4.7227-3.8438 8.5703-8.5664 8.5703zm-67.59-68.91v60.344c0 3.2578 2.6484 5.9062 5.9062 5.9062h61.684c2.8008 0 5.1484-1.957 5.7539-4.5742h-60.203c-4.7227 0-8.5664-3.8438-8.5664-8.5664v-53.043h-3.9531c-0.21484 0-0.42188-0.019531-0.625-0.058594z" fill-rule="evenodd"/>
 <path d="m55.141 31.152h-44.891c-1.8125 0-3.2852-1.4727-3.2852-3.2852v-18.199c0-1.8125 1.4727-3.2852 3.2852-3.2852h44.891c1.8125 0 3.2852 1.4727 3.2852 3.2852v18.199c0 1.8125-1.4727 3.2852-3.2852 3.2852zm-44.891-22.105c-0.33984 0-0.625 0.28516-0.625 0.625v18.199c0 0.33594 0.28516 0.625 0.625 0.625h44.891c0.33984 0 0.625-0.28516 0.625-0.625v-18.199c0-0.33984-0.28516-0.625-0.625-0.625z" fill-rule="evenodd"/>
 <path d="m91.707 31.148h-0.015625-17.199c-4.7227 0-8.5625-3.8398-8.5625-8.5625v-21.254c0-0.55859 0.34766-1.0547 0.86719-1.25 0.51953-0.19531 1.1094-0.042969 1.4727 0.38281l24.324 28.359c0.27344 0.24219 0.44531 0.59766 0.44531 0.99609 0 0.73438-0.59375 1.332-1.332 1.332zm-23.117-26.223v17.66c0 3.2539 2.6484 5.9023 5.9023 5.9023h14.305z" fill-rule="evenodd"/>
 <path d="m79.844 86.77h-52.465c-2.9883 0-5.418-2.4297-5.418-5.418v-39.609c0-2.9883 2.4297-5.418 5.418-5.418h52.465c2.9883 0 5.418 2.4297 5.418 5.418v39.609c0 2.9883-2.4297 5.418-5.418 5.418zm-52.465-47.781c-1.5195 0-2.7578 1.2383-2.7578 2.7578v39.609c0 1.5195 1.2383 2.7539 2.7578 2.7539h52.465c1.5195 0 2.7539-1.2383 2.7539-2.7539v-39.609c0-1.5195-1.2383-2.7539-2.7578-2.7539h-52.465z" fill-rule="evenodd"/>
 <path d="m83.93 49.82h-60.637c-0.73438 0-1.332-0.59766-1.332-1.332s0.59766-1.332 1.332-1.332h60.637c0.73437 0 1.332 0.59766 1.332 1.332s-0.59766 1.332-1.332 1.332z" fill-rule="evenodd"/>
 <path d="m38.035 79.043c-1.3828 0-2.4727-0.41016-3.2344-1.2148-1.4688-1.5547-1.2656-4.0664-1.0859-6.2852 0.10938-1.3516 0.26172-3.1992-0.25781-3.2539-0.67969-0.070312-1.1953-0.64062-1.1953-1.3242s0.51562-1.2539 1.1953-1.3242c0.51953-0.050781 0.36719-1.9023 0.25781-3.2539-0.18359-2.2148-0.38672-4.7305 1.0859-6.2852 0.79688-0.84375 1.9531-1.25 3.4219-1.2148 0.73438 0.019531 1.3164 0.62891 1.2969 1.3672-0.019531 0.73438-0.64062 1.2969-1.3672 1.2969-0.69531-0.023437-1.1641 0.10938-1.418 0.38281-0.65625 0.69141-0.49219 2.6562-0.36328 4.2383 0.12891 1.5703 0.28906 3.5195-0.44141 4.793 0.73047 1.2734 0.57031 3.2227 0.44141 4.793-0.12891 1.5781-0.28906 3.5469 0.36328 4.2383 0.25781 0.26953 0.72656 0.41016 1.418 0.38281 0.72656 0.007813 1.3477 0.5625 1.3672 1.2969s-0.5625 1.3477-1.2969 1.3672h-0.1875z" fill-rule="evenodd"/>
 <path d="m69.188 79.043c-0.0625 0-0.125 0-0.1875-0.003907-0.73438-0.019531-1.3125-0.62891-1.2969-1.3672 0.019531-0.72266 0.60938-1.2969 1.332-1.2969h0.035156c0.66797 0.023438 1.1641-0.10938 1.418-0.38281 0.65625-0.69141 0.49609-2.6562 0.36328-4.2383-0.12891-1.5742-0.28906-3.5195 0.44141-4.793-0.72656-1.2734-0.57031-3.2227-0.44141-4.793 0.12891-1.5781 0.28906-3.5469-0.36328-4.2383-0.25781-0.26953-0.73828-0.40234-1.418-0.38281h-0.035156c-0.71875 0-1.3086-0.57422-1.332-1.2969-0.019531-0.73438 0.5625-1.3438 1.2969-1.3672 1.4727-0.039062 2.625 0.37109 3.4219 1.2148 1.4688 1.5547 1.2656 4.0664 1.082 6.2852-0.10938 1.3516-0.26172 3.1992 0.25781 3.2539 0.67969 0.070312 1.1953 0.64062 1.1953 1.3242 0 0.68359-0.51562 1.2539-1.1953 1.3242-0.51953 0.050782-0.36719 1.9023-0.25781 3.2539 0.18359 2.2148 0.38672 4.7266-1.082 6.2852-0.76562 0.80859-1.8516 1.2188-3.2344 1.2188z" fill-rule="evenodd"/>
 <path d="m43.664 70.922c-2.1797 0-3.957-1.7734-3.957-3.957s1.7773-3.957 3.957-3.957c2.1836 0 3.957 1.7734 3.957 3.957s-1.7773 3.957-3.957 3.957zm0-5.2539c-0.71484 0-1.2969 0.58203-1.2969 1.2969s0.58203 1.2969 1.2969 1.2969c0.71484 0 1.2969-0.58203 1.2969-1.2969s-0.58203-1.2969-1.2969-1.2969z" fill-rule="evenodd"/>
 <path d="m53.613 70.922c-2.1836 0-3.957-1.7734-3.957-3.957s1.7773-3.957 3.957-3.957c2.1836 0 3.957 1.7734 3.957 3.957s-1.7734 3.957-3.957 3.957zm0-5.2539c-0.71484 0-1.2969 0.58203-1.2969 1.2969s0.58203 1.2969 1.2969 1.2969c0.71484 0 1.2969-0.58203 1.2969-1.2969s-0.58203-1.2969-1.2969-1.2969z" fill-rule="evenodd"/>
 <path d="m63.559 70.922c-2.1836 0-3.957-1.7734-3.957-3.957s1.7734-3.957 3.957-3.957 3.957 1.7734 3.957 3.957-1.7773 3.957-3.957 3.957zm0-5.2539c-0.71484 0-1.2969 0.58203-1.2969 1.2969s0.58203 1.2969 1.2969 1.2969 1.2969-0.58203 1.2969-1.2969-0.58203-1.2969-1.2969-1.2969z" fill-rule="evenodd"/>
 <path d="m77.582 44.406h-25.898c-0.73438 0-1.332-0.59766-1.332-1.332s0.59766-1.332 1.332-1.332h25.898c0.73438 0 1.332 0.59766 1.332 1.332s-0.59766 1.332-1.332 1.332z" fill-rule="evenodd"/>
 <path d="m32.758 44.406h-3.1211c-0.73438 0-1.332-0.59766-1.332-1.332s0.59766-1.332 1.332-1.332h3.1211c0.73438 0 1.332 0.59766 1.332 1.332s-0.59766 1.332-1.332 1.332z" fill-rule="evenodd"/>
 <path d="m42.219 44.406h-3.1211c-0.73438 0-1.332-0.59766-1.332-1.332s0.59766-1.332 1.332-1.332h3.1211c0.73438 0 1.332 0.59766 1.332 1.332s-0.59766 1.332-1.332 1.332z" fill-rule="evenodd"/>
<text x="0.0" y="117.5" font-size="5.0" font-weight="bold" font-family="Arbeit Regular, Helvetica, Arial-Unicode, Arial, Sans-serif" fill="#000000">Created by Muhammad Shabraiz</text><text x="0.0" y="122.5" font-size="5.0" font-weight="bold" font-family="Arbeit Regular, Helvetica, Arial-Unicode, Arial, Sans-serif" fill="#000000">from Noun Project</text></svg>