<svg xmlns="http://www.w3.org/2000/svg" data-name="Layer 1" viewBox="0 0 1000 1250" x="0px" y="0px"><title>7456-Javascript</title><path d="M408.35,776.22c-43.06,0-78.1-37.57-78.1-83.74a16,16,0,0,1,32,0c0,28.53,20.68,51.74,46.1,51.74s46.09-23.21,46.09-51.74V566a16,16,0,0,1,32,0V692.48C486.44,738.65,451.4,776.22,408.35,776.22Z"/><path d="M591.81,776.22c-20.1,0-39.16-6.26-53.66-17.64-15.65-12.27-24.27-28.93-24.27-46.92a16,16,0,0,1,32,0c0,17.65,21,32.56,45.93,32.56s45.94-14.91,45.94-32.56-21-32.57-45.94-32.57h-.31c-20.11,0-39.17-6.26-53.67-17.63-15.65-12.27-24.27-28.93-24.27-46.93s8.62-34.66,24.27-46.93C552.33,556.23,571.39,550,591.5,550s39.16,6.26,53.66,17.63c15.65,12.28,24.27,28.94,24.27,46.93a16,16,0,0,1-32,0c0-17.65-21-32.56-45.93-32.56s-45.94,14.91-45.94,32.56,21,32.56,45.94,32.56h.31c20.11,0,39.17,6.27,53.67,17.64,15.65,12.27,24.27,28.93,24.27,46.93s-8.62,34.65-24.27,46.92C631,770,611.92,776.22,591.81,776.22Z"/><path d="M797.46,269.26H641.92a16,16,0,0,1-16-16V100a16,16,0,0,1,27.23-11.4L808.69,241.86a16,16,0,0,1-11.23,27.4Zm-139.54-32H758.43l-100.51-99Z"/><path d="M327.45,357.12A16,16,0,0,1,315.71,352l-62.82-67.86a16,16,0,0,1,0-21.74l62.82-67.86a16,16,0,1,1,23.48,21.74l-52.75,57,52.75,57a16,16,0,0,1-11.74,26.87Z"/><path d="M517,357.12a16,16,0,0,1-11.74-26.87l52.76-57-52.76-57a16,16,0,0,1,23.49-21.74l62.81,67.86a16,16,0,0,1,0,21.74L528.75,352A16,16,0,0,1,517,357.12Z"/><path d="M394.79,396.37a16,16,0,0,1-15.51-20l54.9-214.22a16,16,0,1,1,31,7.94L410.28,384.34A16,16,0,0,1,394.79,396.37Z"/><path d="M808.21,825.73H191.79a76.75,76.75,0,0,1-76.67-76.67V577.13a76.75,76.75,0,0,1,76.67-76.67H808.21a76.75,76.75,0,0,1,76.67,76.67V749.06A76.75,76.75,0,0,1,808.21,825.73ZM191.79,532.46a44.72,44.72,0,0,0-44.67,44.67V749.06a44.72,44.72,0,0,0,44.67,44.67H808.21a44.72,44.72,0,0,0,44.67-44.67V577.13a44.72,44.72,0,0,0-44.67-44.67Z"/><path d="M797.46,532.46a16,16,0,0,1-16-16V253.26a16,16,0,0,1,32,0v263.2A16,16,0,0,1,797.46,532.46Z"/><path d="M202.54,532.46a16,16,0,0,1-16-16V154.07A70.14,70.14,0,0,1,256.6,84H641.92a16,16,0,0,1,0,32H256.6a38.11,38.11,0,0,0-38.06,38.07V516.46A16,16,0,0,1,202.54,532.46Z"/><path d="M743.4,916H256.6a70.06,70.06,0,0,1-69.78-63.83c0-.47-.06-.93-.06-1.4l0-41a16,16,0,0,1,16-16h0a16,16,0,0,1,16,16l0,40.27a38.3,38.3,0,0,0,37.84,34H743.4a38.28,38.28,0,0,0,37.9-34.65c0-.42.09-.83.16-1.24V809.73a16,16,0,0,1,32,0v41a15.94,15.94,0,0,1-.61,4.39A70.06,70.06,0,0,1,743.4,916Z"/><text x="0" y="1015" fill="#000000" font-size="5px" font-weight="bold" font-family="'Helvetica Neue', Helvetica, Arial-Unicode, Arial, Sans-serif">Created by IYIKON</text><text x="0" y="1020" fill="#000000" font-size="5px" font-weight="bold" font-family="'Helvetica Neue', Helvetica, Arial-Unicode, Arial, Sans-serif">from the Noun Project</text></svg>